{"title":"What.Becomes.Of.The.Broken.Hearted.1999.SWESUB.DVDRip.XviD.Zen_B","uid":5805036,"size":733771776,"categoryP":"video","categoryS":"movies","magnet":"?xt=urn:btih:c40836b3dbc90d8dc92fec2aceed70de7c99d138&amp;dn=What.Becomes.Of.The.Broken.Hearted.1999.SWESUB.DVDRip.XviD.Zen_B&amp;tr=udp%3A%2F%2Ftracker.openbittorrent.com%3A80&amp;tr=udp%3A%2F%2Fopen.demonii.com%3A1337&amp;tr=udp%3A%2F%2Ftracker.coppersurfer.tk%3A6969&amp;tr=udp%3A%2F%2Fexodus.desync.com%3A6969","seeders":1,"leechers":0,"uploader":"Zen_Bud","files":-1,"time":1283416239,"description":"*** What.Becomes.Of.The.Broken.Hearted.1999.SWESUB.DVDRip.XviD.Zen_Bud ***\n\n\nFormat                           : AVI\nFile size                        : 700 MiB\nDuration                         : 1h 40mn\nOverall bit rate                 : 972 Kbps\n\n\nVideo\n\nFormat                           : MPEG-4 Visual\nCodec ID/Hint                    : XviD\nDuration                         : 1h 40mn\nBit rate                         : 855 Kbps\nWidth                            : 512 pixels\nHeight                           : 384 pixels\nDisplay aspect ratio             : 4:3\nStream size                      : 615 MiB (88%)\nWriting library                  : XviD 1.2.1 (UTC 2008-12-04)\n\nAudio\n\nFormat                           : MPEG Audio\nCodec ID/Hint                    : MP3\nDuration                         : 1h 40mn\nNominal bit rate                 : 112 Kbps\nChannel(s)                       : 2 channels\nSampling rate                    : 44.1 KHz\nStream size                      : 75.5 MiB (11%)\nInterleave, preload duration     : 508 ms\nWriting library                  : LAME3.98r\n\n\n","torrent":{"xt":"urn:btih:c40836b3dbc90d8dc92fec2aceed70de7c99d138","amp;dn":"What.Becomes.Of.The.Broken.Hearted.1999.SWESUB.DVDRip.XviD.Zen_B","amp;tr":["udp%3A%2F%2Ftracker.openbittorrent.com%3A80","udp%3A%2F%2Fopen.demonii.com%3A1337","udp%3A%2F%2Ftracker.coppersurfer.tk%3A6969","udp%3A%2F%2Fexodus.desync.com%3A6969"],"infoHash":"c40836b3dbc90d8dc92fec2aceed70de7c99d138","infoHashBuffer":{"type":"Buffer","data":[196,8,54,179,219,201,13,141,201,47,236,42,206,237,112,222,124,153,209,56]},"announce":[],"urlList":[]}}